<svg width="100" height="100" viewBox="0 0 100 100" fill="none" xmlns="http://www.w3.org/2000/svg">
<mask id="mask0_4_53" style="mask-type:alpha" maskUnits="userSpaceOnUse" x="0" y="-1" width="101" height="101">
<circle cx="50.0002" cy="49.9997" r="50" fill="#D9D9D9"/>
</mask>
<g mask="url(#mask0_4_53)">
<circle cx="5.00024" cy="80.9997" r="110" fill="#5BB8FF"/>
<circle cx="5.00024" cy="80.9997" r="80" fill="#3490FF"/>
<circle cx="5.00024" cy="80.9997" r="50" fill="#196EFF"/>
<circle cx="5.00024" cy="80.9997" r="20" fill="#004CFF"/>
</g>
<g filter="url(#filter0_d_4_53)">
<path d="M9.55234 50.8552H10.9762C10.9527 51.2947 10.8326 51.6829 10.6158 52.0198C10.4019 52.3538 10.1046 52.616 9.72372 52.8064C9.34286 52.9939 8.89023 53.0876 8.36581 53.0876C7.94687 53.0876 7.57187 53.0159 7.24081 52.8723C6.90976 52.7288 6.62851 52.5237 6.39706 52.2571C6.16855 51.9875 5.99277 51.6638 5.86972 51.2859C5.7496 50.905 5.68954 50.4758 5.68954 49.9983V49.6072C5.68954 49.1296 5.75253 48.7004 5.87851 48.3196C6.00449 47.9387 6.18466 47.6135 6.41904 47.344C6.65341 47.0745 6.93466 46.8679 7.26279 46.7244C7.59091 46.5808 7.95712 46.509 8.36142 46.509C8.90634 46.509 9.3663 46.6072 9.7413 46.8035C10.1163 46.9998 10.4063 47.2693 10.6114 47.6121C10.8194 47.9548 10.9439 48.3459 10.985 48.7854H9.55673C9.54501 48.5364 9.49814 48.3269 9.41611 48.157C9.33407 47.9841 9.2081 47.8538 9.03818 47.7659C8.86825 47.678 8.64267 47.634 8.36142 47.634C8.15634 47.634 7.97616 47.6721 7.82089 47.7483C7.66855 47.8245 7.54111 47.9431 7.43857 48.1042C7.33896 48.2654 7.26425 48.4705 7.21445 48.7195C7.16464 48.9656 7.13974 49.2585 7.13974 49.5984V49.9983C7.13974 50.3352 7.16171 50.6267 7.20566 50.8728C7.2496 51.1189 7.31992 51.3225 7.41659 51.4836C7.5162 51.6448 7.64365 51.7649 7.79892 51.844C7.95419 51.9231 8.14316 51.9626 8.36581 51.9626C8.6207 51.9626 8.8331 51.9231 9.00302 51.844C9.17294 51.762 9.30331 51.6389 9.39413 51.4749C9.48495 51.3108 9.53769 51.1042 9.55234 50.8552ZM24.435 49.1765V50.2839H21.1216V49.1765H24.435ZM21.5742 46.6013V52.9998H20.1416V46.6013H21.5742ZM25.4238 46.6013V52.9998H23.9956V46.6013H25.4238ZM37.5951 47.8186L35.9427 52.9998H34.4134L36.7821 46.6013H37.7489L37.5951 47.8186ZM38.9662 52.9998L37.3094 47.8186L37.138 46.6013H38.118L40.4955 52.9998H38.9662ZM38.8958 50.6179V51.7253H35.5604V50.6179H38.8958ZM51.8405 46.6013V52.9998H50.4123V46.6013H51.8405ZM53.7873 46.6013V47.7131H48.5051V46.6013H53.7873ZM65.9146 46.6013V52.9998H64.4864V46.6013H65.9146ZM67.8614 46.6013V47.7131H62.5792V46.6013H67.8614ZM81.2895 51.8923V52.9998H77.8838V51.8923H81.2895ZM78.3716 46.6013V52.9998H76.9389V46.6013H78.3716ZM80.8501 49.1765V50.2488H77.8838V49.1765H80.8501ZM81.2939 46.6013V47.7131H77.8838V46.6013H81.2939ZM90.3626 46.6013H92.8192C93.3084 46.6013 93.7318 46.6746 94.0892 46.821C94.4496 46.9675 94.7264 47.1843 94.9198 47.4714C95.1131 47.7585 95.2098 48.113 95.2098 48.5349C95.2098 48.8865 95.1527 49.1853 95.0384 49.4314C94.9242 49.6775 94.763 49.8811 94.555 50.0422C94.3499 50.2034 94.1097 50.3337 93.8343 50.4333L93.3685 50.6882H91.2767L91.2679 49.5764H92.8236C93.0374 49.5764 93.2147 49.5383 93.3553 49.4622C93.4959 49.386 93.6014 49.2791 93.6717 49.1414C93.745 49.0007 93.7816 48.8367 93.7816 48.6492C93.7816 48.4558 93.745 48.2888 93.6717 48.1482C93.5985 48.0076 93.4901 47.9006 93.3465 47.8274C93.2059 47.7512 93.0301 47.7131 92.8192 47.7131H91.7953V52.9998H90.3626V46.6013ZM93.9046 52.9998L92.4676 50.1565L93.9793 50.1521L95.4383 52.9338V52.9998H93.9046Z" fill="white"/>
</g>
<defs>
<filter id="filter0_d_4_53" x="1.68954" y="46.509" width="97.7488" height="14.5786" filterUnits="userSpaceOnUse" color-interpolation-filters="sRGB">
<feFlood flood-opacity="0" result="BackgroundImageFix"/>
<feColorMatrix in="SourceAlpha" type="matrix" values="0 0 0 0 0 0 0 0 0 0 0 0 0 0 0 0 0 0 127 0" result="hardAlpha"/>
<feOffset dy="4"/>
<feGaussianBlur stdDeviation="2"/>
<feComposite in2="hardAlpha" operator="out"/>
<feColorMatrix type="matrix" values="0 0 0 0 0 0 0 0 0 0 0 0 0 0 0 0 0 0 0.25 0"/>
<feBlend mode="normal" in2="BackgroundImageFix" result="effect1_dropShadow_4_53"/>
<feBlend mode="normal" in="SourceGraphic" in2="effect1_dropShadow_4_53" result="shape"/>
</filter>
</defs>
</svg>
